<!DOCTYPE svg PUBLIC "-//W3C//DTD SVG 1.1//EN" "http://www.w3.org/Graphics/SVG/1.1/DTD/svg11.dtd">
<!-- Uploaded to: SVG Repo, www.svgrepo.com, Transformed by: SVG Repo Mixer Tools -->
<svg fill="#757575" height="64px" width="64px" version="1.1" id="Layer_1" xmlns="http://www.w3.org/2000/svg" xmlns:xlink="http://www.w3.org/1999/xlink" viewBox="0 0 512 512" xml:space="preserve" stroke="#757575">
<g id="SVGRepo_bgCarrier" stroke-width="0"/>
<g id="SVGRepo_tracerCarrier" stroke-linecap="round" stroke-linejoin="round"/>
<g id="SVGRepo_iconCarrier"> <g> <g> <path d="M256.005,125.277c-72.081,0-130.723,58.643-130.723,130.723c0,28.927,9.265,56.345,26.794,79.288 c2.74,3.585,7.867,4.272,11.452,1.533c3.586-2.74,4.273-7.867,1.533-11.452c-15.334-20.069-23.439-44.057-23.439-69.368 c0-63.071,51.312-114.383,114.383-114.383S370.388,192.929,370.388,256c0,63.071-51.312,114.383-114.383,114.383 c-25.311,0-49.299-8.105-69.368-23.439c-3.586-2.74-8.713-2.052-11.454,1.532c-2.74,3.586-2.053,8.713,1.532,11.452 c22.944,17.53,50.362,26.795,79.29,26.795c72.081,0,130.723-58.643,130.723-130.723S328.086,125.277,256.005,125.277z"/> </g> </g> <g> <g> <path d="M256.005,81.702c-96.109,0-174.298,78.19-174.298,174.298s78.189,174.298,174.298,174.298S430.303,352.108,430.303,256 S352.113,81.702,256.005,81.702z M256.005,413.957c-87.098,0-157.957-70.86-157.957-157.957s70.86-157.957,157.957-157.957 S413.963,168.902,413.963,256S343.103,413.957,256.005,413.957z"/> </g> </g> <g> <g> <path d="M256,157.963c-4.513,0-8.17,3.658-8.17,8.17v5.447c0,4.512,3.657,8.17,8.17,8.17c4.513,0,8.17-3.658,8.17-8.17v-5.447 C264.17,161.621,260.513,157.963,256,157.963z"/> </g> </g> <g> <g> <path d="M220.863,178.807l-2.723-4.718c-2.255-3.908-7.251-5.249-11.16-2.991c-3.908,2.256-5.246,7.253-2.99,11.16l2.723,4.718 c1.513,2.621,4.259,4.087,7.083,4.087c1.386,0,2.791-0.353,4.078-1.096C221.78,187.711,223.119,182.714,220.863,178.807z"/> </g> </g> <g> <g> <path d="M186.97,206.717l-4.717-2.723c-3.91-2.257-8.906-0.918-11.161,2.99c-2.257,3.908-0.917,8.904,2.99,11.161l4.717,2.723 c1.288,0.743,2.692,1.096,4.077,1.096c2.824,0,5.57-1.465,7.083-4.086C192.217,213.97,190.878,208.973,186.97,206.717z"/> </g> </g> <g> <g> <path d="M171.574,247.835h-5.447c-4.513,0-8.17,3.658-8.17,8.17c0,4.512,3.657,8.17,8.17,8.17h5.447c4.513,0,8.17-3.658,8.17-8.17 C179.745,251.493,176.088,247.835,171.574,247.835z"/> </g> </g> <g> <g> <path d="M189.961,294.133c-2.256-3.908-7.255-5.246-11.16-2.99l-4.717,2.723c-3.908,2.256-5.246,7.253-2.99,11.161 c1.514,2.621,4.259,4.086,7.083,4.086c1.386,0,2.791-0.353,4.077-1.096l4.717-2.723 C190.878,303.038,192.217,298.041,189.961,294.133z"/> </g> </g> <g> <g> <path d="M217.872,322.045c-3.911-2.257-8.906-0.918-11.161,2.99l-2.723,4.717c-2.256,3.909-0.917,8.904,2.99,11.161 c1.288,0.743,2.692,1.096,4.077,1.096c2.824,0,5.57-1.465,7.083-4.086l2.723-4.717 C223.119,329.298,221.78,324.301,217.872,322.045z"/> </g> </g> <g> <g> <path d="M256,332.261c-4.513,0-8.17,3.658-8.17,8.17v5.447c0,4.512,3.657,8.17,8.17,8.17c4.513,0,8.17-3.658,8.17-8.17v-5.447 C264.17,335.919,260.513,332.261,256,332.261z"/> </g> </g> <g> <g> <path d="M308.012,329.752l-2.723-4.717c-2.257-3.908-7.255-5.247-11.161-2.99c-3.908,2.256-5.246,7.253-2.99,11.161l2.723,4.717 c1.514,2.621,4.259,4.086,7.083,4.086c1.386,0,2.792-0.353,4.077-1.096C308.929,338.656,310.268,333.659,308.012,329.752z"/> </g> </g> <g> <g> <path d="M337.917,293.866l-4.717-2.723c-3.91-2.257-8.906-0.917-11.161,2.99c-2.256,3.908-0.917,8.904,2.99,11.161l4.717,2.723 c1.288,0.743,2.692,1.096,4.078,1.096c2.824,0,5.57-1.465,7.083-4.086C343.163,301.119,341.824,296.122,337.917,293.866z"/> </g> </g> <g> <g> <path d="M345.872,247.835h-5.447c-4.513,0-8.17,3.658-8.17,8.17c0,4.512,3.657,8.17,8.17,8.17h5.447c4.513,0,8.17-3.658,8.17-8.17 C354.043,251.493,350.386,247.835,345.872,247.835z"/> </g> </g> <g> <g> <path d="M340.907,206.984c-2.257-3.909-7.254-5.247-11.161-2.99l-4.717,2.723c-3.908,2.256-5.246,7.253-2.99,11.161 c1.514,2.621,4.259,4.086,7.083,4.086c1.386,0,2.792-0.353,4.077-1.096l4.717-2.723 C341.824,215.889,343.163,210.892,340.907,206.984z"/> </g> </g> <g> <g> <path d="M305.021,171.096c-3.911-2.258-8.907-0.917-11.16,2.991l-2.723,4.718c-2.256,3.909-0.917,8.906,2.99,11.161 c1.288,0.743,2.692,1.096,4.077,1.096c2.824,0,5.57-1.466,7.083-4.087l2.723-4.718 C310.268,178.349,308.929,173.352,305.021,171.096z"/> </g> </g> <g> <g> <path d="M256,196.091c-4.513,0-8.17,3.658-8.17,8.17v43.574h-32.681c-4.513,0-8.17,3.658-8.17,8.17c0,4.512,3.657,8.17,8.17,8.17 H256c4.513,0,8.17-3.658,8.17-8.17v-51.745C264.17,199.749,260.513,196.091,256,196.091z"/> </g> </g> <g> <g> <path d="M73.532,81.702c-4.513,0-8.17,3.658-8.17,8.17v51.745h-16.34V89.872c0-4.512-3.657-8.17-8.17-8.17s-8.17,3.658-8.17,8.17 v51.745H16.34V89.872c0-4.512-3.657-8.17-8.17-8.17S0,85.36,0,89.872v81.702c0,12.888,6.157,25.01,16.34,32.67v201.543 c0,13.516,10.996,24.511,24.511,24.511c13.515,0,24.511-10.995,24.511-24.511V204.244c10.183-7.66,16.34-19.782,16.34-32.67 V89.872C81.702,85.36,78.045,81.702,73.532,81.702z M65.362,171.574c0,8.716-4.698,16.849-12.263,21.226 c-2.523,1.461-4.077,4.156-4.077,7.072v205.914c0,4.506-3.665,8.17-8.17,8.17s-8.17-3.665-8.17-8.17V199.873 c0-2.916-1.555-5.61-4.077-7.071c-7.565-4.378-12.263-12.511-12.263-21.227v-13.617h49.021V171.574z"/> </g> </g> <g> <g> <path d="M479.319,81.702c-18.02,0-32.681,14.661-32.681,32.681v128c0,18.02,14.661,32.681,32.681,32.681h16.34v130.723 c0,4.506-3.665,8.17-8.17,8.17c-4.506,0-8.17-3.665-8.17-8.171l-0.011-106.213c0-4.512-3.658-8.17-8.171-8.169 c-4.512,0-8.169,3.658-8.169,8.171l0.011,106.212c0,13.516,10.996,24.511,24.511,24.511c13.515,0,24.511-10.995,24.511-24.511 V114.383C512,96.363,497.339,81.702,479.319,81.702z M495.66,258.723h-16.34c-9.01,0-16.34-7.33-16.34-16.34v-128 c0-9.01,7.33-16.34,16.34-16.34s16.34,7.33,16.34,16.34V258.723z"/> </g> </g> </g>
</svg>